<mxfile host="app.diagrams.net" modified="2020-04-06T20:39:49.852Z" agent="5.0 (Windows NT 10.0; WOW64) AppleWebKit/537.36 (KHTML, like Gecko) Chrome/80.0.3987.149 Safari/537.36" etag="8gbIy0rQuDnMAY6ZZy17" version="12.9.8" type="github">
  <diagram id="24qYz16iHgg6FhlUd72N" name="Page-1">
    <mxGraphModel dx="1695" dy="520" grid="0" gridSize="10" guides="1" tooltips="1" connect="1" arrows="1" fold="1" page="1" pageScale="1" pageWidth="827" pageHeight="1169" background="none" math="0" shadow="0">
      <root>
        <mxCell id="0" />
        <mxCell id="1" parent="0" />
        <mxCell id="JlYodZFRAVrcuJiCfBLT-8" style="edgeStyle=orthogonalEdgeStyle;rounded=0;orthogonalLoop=1;jettySize=auto;html=1;exitX=0.5;exitY=1;exitDx=0;exitDy=0;exitPerimeter=0;entryX=0.5;entryY=0;entryDx=0;entryDy=0;" parent="1" source="JlYodZFRAVrcuJiCfBLT-2" target="JlYodZFRAVrcuJiCfBLT-5" edge="1">
          <mxGeometry relative="1" as="geometry" />
        </mxCell>
        <mxCell id="JlYodZFRAVrcuJiCfBLT-2" value="START" style="strokeWidth=2;html=1;shape=mxgraph.flowchart.start_1;whiteSpace=wrap;" parent="1" vertex="1">
          <mxGeometry x="57.5" y="20" width="70" height="40" as="geometry" />
        </mxCell>
        <mxCell id="JlYodZFRAVrcuJiCfBLT-10" style="edgeStyle=orthogonalEdgeStyle;rounded=0;orthogonalLoop=1;jettySize=auto;html=1;exitX=1;exitY=0.5;exitDx=0;exitDy=0;exitPerimeter=0;entryX=1;entryY=0.5;entryDx=0;entryDy=0;" parent="1" source="JlYodZFRAVrcuJiCfBLT-3" target="JlYodZFRAVrcuJiCfBLT-5" edge="1">
          <mxGeometry relative="1" as="geometry">
            <Array as="points">
              <mxPoint x="210" y="150" />
              <mxPoint x="210" y="95" />
            </Array>
          </mxGeometry>
        </mxCell>
        <mxCell id="JlYodZFRAVrcuJiCfBLT-13" style="edgeStyle=orthogonalEdgeStyle;rounded=0;orthogonalLoop=1;jettySize=auto;html=1;exitX=0.5;exitY=1;exitDx=0;exitDy=0;exitPerimeter=0;entryX=0.5;entryY=0;entryDx=0;entryDy=0;" parent="1" source="JlYodZFRAVrcuJiCfBLT-3" target="JlYodZFRAVrcuJiCfBLT-11" edge="1">
          <mxGeometry relative="1" as="geometry" />
        </mxCell>
        <mxCell id="JlYodZFRAVrcuJiCfBLT-3" value="sec=59" style="strokeWidth=2;html=1;shape=mxgraph.flowchart.decision;whiteSpace=wrap;" parent="1" vertex="1">
          <mxGeometry x="47.5" y="130" width="85" height="40" as="geometry" />
        </mxCell>
        <mxCell id="JlYodZFRAVrcuJiCfBLT-9" style="edgeStyle=orthogonalEdgeStyle;rounded=0;orthogonalLoop=1;jettySize=auto;html=1;exitX=0.5;exitY=1;exitDx=0;exitDy=0;entryX=0.5;entryY=0;entryDx=0;entryDy=0;entryPerimeter=0;" parent="1" source="JlYodZFRAVrcuJiCfBLT-5" target="JlYodZFRAVrcuJiCfBLT-3" edge="1">
          <mxGeometry relative="1" as="geometry" />
        </mxCell>
        <mxCell id="JlYodZFRAVrcuJiCfBLT-5" value="sec=sec+1" style="rounded=1;whiteSpace=wrap;html=1;absoluteArcSize=1;arcSize=14;strokeWidth=2;" parent="1" vertex="1">
          <mxGeometry x="47.5" y="80" width="90" height="30" as="geometry" />
        </mxCell>
        <mxCell id="JlYodZFRAVrcuJiCfBLT-7" value="Yes" style="text;html=1;align=center;verticalAlign=middle;resizable=0;points=[];autosize=1;" parent="1" vertex="1">
          <mxGeometry x="57.5" y="170" width="40" height="20" as="geometry" />
        </mxCell>
        <mxCell id="JlYodZFRAVrcuJiCfBLT-18" style="edgeStyle=orthogonalEdgeStyle;rounded=0;orthogonalLoop=1;jettySize=auto;html=1;exitX=0.5;exitY=1;exitDx=0;exitDy=0;entryX=0.5;entryY=0;entryDx=0;entryDy=0;" parent="1" source="JlYodZFRAVrcuJiCfBLT-11" target="JlYodZFRAVrcuJiCfBLT-12" edge="1">
          <mxGeometry relative="1" as="geometry" />
        </mxCell>
        <mxCell id="JlYodZFRAVrcuJiCfBLT-11" value="sec=0" style="rounded=1;whiteSpace=wrap;html=1;absoluteArcSize=1;arcSize=14;strokeWidth=2;" parent="1" vertex="1">
          <mxGeometry x="45" y="190" width="90" height="30" as="geometry" />
        </mxCell>
        <mxCell id="JlYodZFRAVrcuJiCfBLT-20" style="edgeStyle=orthogonalEdgeStyle;rounded=0;orthogonalLoop=1;jettySize=auto;html=1;exitX=0.5;exitY=1;exitDx=0;exitDy=0;entryX=0.5;entryY=0;entryDx=0;entryDy=0;entryPerimeter=0;" parent="1" source="JlYodZFRAVrcuJiCfBLT-12" target="JlYodZFRAVrcuJiCfBLT-17" edge="1">
          <mxGeometry relative="1" as="geometry" />
        </mxCell>
        <mxCell id="JlYodZFRAVrcuJiCfBLT-12" value="min=min+1" style="rounded=1;whiteSpace=wrap;html=1;absoluteArcSize=1;arcSize=14;strokeWidth=2;" parent="1" vertex="1">
          <mxGeometry x="42.5" y="240" width="90" height="30" as="geometry" />
        </mxCell>
        <mxCell id="JlYodZFRAVrcuJiCfBLT-21" style="edgeStyle=orthogonalEdgeStyle;rounded=0;orthogonalLoop=1;jettySize=auto;html=1;exitX=0.5;exitY=1;exitDx=0;exitDy=0;exitPerimeter=0;" parent="1" source="JlYodZFRAVrcuJiCfBLT-17" edge="1">
          <mxGeometry relative="1" as="geometry">
            <mxPoint x="88" y="350" as="targetPoint" />
          </mxGeometry>
        </mxCell>
        <mxCell id="Vzjtax4wMNP0ewU8lbWl-1" style="edgeStyle=orthogonalEdgeStyle;rounded=0;orthogonalLoop=1;jettySize=auto;html=1;exitX=0;exitY=0.5;exitDx=0;exitDy=0;exitPerimeter=0;entryX=0;entryY=0.5;entryDx=0;entryDy=0;" edge="1" parent="1" source="JlYodZFRAVrcuJiCfBLT-17" target="JlYodZFRAVrcuJiCfBLT-5">
          <mxGeometry relative="1" as="geometry" />
        </mxCell>
        <mxCell id="JlYodZFRAVrcuJiCfBLT-17" value="sec=59 &amp;amp; min=59" style="strokeWidth=2;html=1;shape=mxgraph.flowchart.decision;whiteSpace=wrap;" parent="1" vertex="1">
          <mxGeometry x="7.5" y="290" width="160" height="40" as="geometry" />
        </mxCell>
        <mxCell id="JlYodZFRAVrcuJiCfBLT-25" style="edgeStyle=orthogonalEdgeStyle;rounded=0;orthogonalLoop=1;jettySize=auto;html=1;exitX=0.5;exitY=1;exitDx=0;exitDy=0;" parent="1" source="JlYodZFRAVrcuJiCfBLT-22" target="JlYodZFRAVrcuJiCfBLT-23" edge="1">
          <mxGeometry relative="1" as="geometry" />
        </mxCell>
        <mxCell id="JlYodZFRAVrcuJiCfBLT-22" value="min=0" style="rounded=1;whiteSpace=wrap;html=1;absoluteArcSize=1;arcSize=14;strokeWidth=2;" parent="1" vertex="1">
          <mxGeometry x="42.5" y="350" width="90" height="30" as="geometry" />
        </mxCell>
        <mxCell id="JlYodZFRAVrcuJiCfBLT-27" style="edgeStyle=orthogonalEdgeStyle;rounded=0;orthogonalLoop=1;jettySize=auto;html=1;exitX=0.5;exitY=1;exitDx=0;exitDy=0;entryX=0.5;entryY=0;entryDx=0;entryDy=0;entryPerimeter=0;" parent="1" source="JlYodZFRAVrcuJiCfBLT-23" target="JlYodZFRAVrcuJiCfBLT-26" edge="1">
          <mxGeometry relative="1" as="geometry" />
        </mxCell>
        <mxCell id="JlYodZFRAVrcuJiCfBLT-23" value="hor=hor+1" style="rounded=1;whiteSpace=wrap;html=1;absoluteArcSize=1;arcSize=14;strokeWidth=2;" parent="1" vertex="1">
          <mxGeometry x="42.5" y="400" width="90" height="30" as="geometry" />
        </mxCell>
        <mxCell id="JlYodZFRAVrcuJiCfBLT-29" style="edgeStyle=orthogonalEdgeStyle;rounded=0;orthogonalLoop=1;jettySize=auto;html=1;exitX=0.5;exitY=1;exitDx=0;exitDy=0;exitPerimeter=0;" parent="1" source="JlYodZFRAVrcuJiCfBLT-26" target="JlYodZFRAVrcuJiCfBLT-28" edge="1">
          <mxGeometry relative="1" as="geometry" />
        </mxCell>
        <mxCell id="Vzjtax4wMNP0ewU8lbWl-2" style="edgeStyle=orthogonalEdgeStyle;rounded=0;orthogonalLoop=1;jettySize=auto;html=1;exitX=1;exitY=0.5;exitDx=0;exitDy=0;exitPerimeter=0;entryX=1;entryY=0.5;entryDx=0;entryDy=0;" edge="1" parent="1" source="JlYodZFRAVrcuJiCfBLT-26" target="JlYodZFRAVrcuJiCfBLT-5">
          <mxGeometry relative="1" as="geometry">
            <Array as="points">
              <mxPoint x="210" y="470" />
              <mxPoint x="210" y="95" />
            </Array>
          </mxGeometry>
        </mxCell>
        <mxCell id="JlYodZFRAVrcuJiCfBLT-26" value="sec=59 &amp;amp; min=59 &amp;amp;hor=23" style="strokeWidth=2;html=1;shape=mxgraph.flowchart.decision;whiteSpace=wrap;" parent="1" vertex="1">
          <mxGeometry x="-28.75" y="450" width="232.5" height="40" as="geometry" />
        </mxCell>
        <mxCell id="JlYodZFRAVrcuJiCfBLT-31" style="edgeStyle=orthogonalEdgeStyle;rounded=0;orthogonalLoop=1;jettySize=auto;html=1;exitX=0.5;exitY=1;exitDx=0;exitDy=0;entryX=0.5;entryY=0;entryDx=0;entryDy=0;" parent="1" source="JlYodZFRAVrcuJiCfBLT-28" target="JlYodZFRAVrcuJiCfBLT-30" edge="1">
          <mxGeometry relative="1" as="geometry" />
        </mxCell>
        <mxCell id="JlYodZFRAVrcuJiCfBLT-28" value="hor=0" style="rounded=1;whiteSpace=wrap;html=1;absoluteArcSize=1;arcSize=14;strokeWidth=2;" parent="1" vertex="1">
          <mxGeometry x="42.5" y="510" width="90" height="30" as="geometry" />
        </mxCell>
        <mxCell id="JlYodZFRAVrcuJiCfBLT-32" style="edgeStyle=orthogonalEdgeStyle;rounded=0;orthogonalLoop=1;jettySize=auto;html=1;exitX=0.5;exitY=1;exitDx=0;exitDy=0;" parent="1" source="JlYodZFRAVrcuJiCfBLT-30" edge="1">
          <mxGeometry relative="1" as="geometry">
            <mxPoint x="88" y="610" as="targetPoint" />
          </mxGeometry>
        </mxCell>
        <mxCell id="JlYodZFRAVrcuJiCfBLT-30" value="min=0" style="rounded=1;whiteSpace=wrap;html=1;absoluteArcSize=1;arcSize=14;strokeWidth=2;" parent="1" vertex="1">
          <mxGeometry x="42.5" y="560" width="90" height="30" as="geometry" />
        </mxCell>
        <mxCell id="JlYodZFRAVrcuJiCfBLT-35" value="END" style="strokeWidth=2;html=1;shape=mxgraph.flowchart.start_1;whiteSpace=wrap;" parent="1" vertex="1">
          <mxGeometry x="42.5" y="610" width="87.5" height="30" as="geometry" />
        </mxCell>
        <mxCell id="JlYodZFRAVrcuJiCfBLT-36" value="Yes" style="text;html=1;align=center;verticalAlign=middle;resizable=0;points=[];autosize=1;" parent="1" vertex="1">
          <mxGeometry x="42.5" y="330" width="40" height="20" as="geometry" />
        </mxCell>
        <mxCell id="JlYodZFRAVrcuJiCfBLT-37" value="Yes" style="text;html=1;align=center;verticalAlign=middle;resizable=0;points=[];autosize=1;" parent="1" vertex="1">
          <mxGeometry x="47.5" y="490" width="40" height="20" as="geometry" />
        </mxCell>
      </root>
    </mxGraphModel>
  </diagram>
</mxfile>
